<svg width="33" height="36" viewBox="0 0 33 36" fill="none" xmlns="http://www.w3.org/2000/svg">
<path d="M31.6751 21.0437C31.4841 20.9979 31.2854 20.9877 31.0902 21.0138C30.895 21.0399 30.7073 21.1017 30.5378 21.1957C30.3684 21.2898 30.2205 21.4141 30.1027 21.5616C29.9848 21.7092 29.8994 21.877 29.8513 22.0554C29.5767 23.0443 28.9252 23.9058 28.0188 24.4785C27.1124 25.0511 26.0133 25.2956 24.9276 25.1662C23.8419 25.0367 22.844 24.5421 22.121 23.7752C21.398 23.0083 20.9994 22.0215 21 21V19.6H31.5C31.697 19.6 31.8921 19.5638 32.0741 19.4935C32.2561 19.4232 32.4215 19.32 32.5608 19.19C32.7001 19.06 32.8106 18.9057 32.8859 18.7358C32.9613 18.5659 33.0001 18.3838 33 18.2C33 17.2807 32.806 16.3705 32.4291 15.5212C32.0522 14.6719 31.4997 13.9003 30.8033 13.2503C30.1069 12.6003 29.2801 12.0846 28.3701 11.7329C27.4602 11.3811 26.4849 11.2 25.5 11.2C24.5151 11.2 23.5398 11.3811 22.6299 11.7329C21.7199 12.0846 20.8931 12.6003 20.1967 13.2503C19.5003 13.9003 18.9478 14.6719 18.5709 15.5212C18.194 16.3705 18 17.2807 18 18.2V21C17.9994 22.704 18.665 24.3497 19.872 25.6283C21.0789 26.9068 22.7443 27.7304 24.5556 27.9445C26.3669 28.1586 28.1996 27.7485 29.71 26.7911C31.2203 25.8337 32.3045 24.3949 32.759 22.7445C32.8076 22.5664 32.8181 22.3811 32.7899 22.1992C32.7617 22.0173 32.6954 21.8424 32.5947 21.6844C32.494 21.5265 32.361 21.3886 32.2032 21.2787C32.0454 21.1687 31.8659 21.0889 31.6751 21.0437ZM25.5 14C26.6901 14.0004 27.8318 14.4392 28.6772 15.2209C29.1467 15.6689 29.5045 16.2081 29.7252 16.8H21.2764C21.5846 15.9834 22.156 15.2759 22.9123 14.7746C23.6685 14.2733 24.5724 14.0027 25.5 14ZM22.5 9.80002H28.5C28.8978 9.80002 29.2794 9.65252 29.5607 9.38997C29.842 9.12742 30 8.77133 30 8.40003C30 8.02872 29.842 7.67263 29.5607 7.41008C29.2794 7.14753 28.8978 7.00003 28.5 7.00003H22.5C22.1022 7.00003 21.7206 7.14753 21.4393 7.41008C21.158 7.67263 21 8.02872 21 8.40003C21 8.77133 21.158 9.12742 21.4393 9.38997C21.7206 9.65252 22.1022 9.80002 22.5 9.80002ZM13.377 16.404C14.1775 15.6093 14.711 14.613 14.9115 13.5384C15.1119 12.4638 14.9706 11.3579 14.5049 10.3574C14.0393 9.35691 13.2697 8.50572 12.2913 7.90904C11.313 7.31235 10.1687 6.99633 9 7.00003H1.5C1.303 6.99998 1.10792 7.03616 0.925912 7.1065C0.7439 7.17684 0.57852 7.27996 0.439221 7.40997C0.299923 7.53998 0.189436 7.69434 0.114072 7.86421C0.0387091 8.03409 -5.31562e-05 8.21616 5.47096e-08 8.40003V26.6C-5.11846e-05 26.7838 0.0387126 26.9659 0.114076 27.1358C0.18944 27.3056 0.299928 27.46 0.439226 27.59C0.578524 27.72 0.743903 27.8231 0.925914 27.8935C1.10793 27.9638 1.303 28 1.5 27.9999H9.75C11.2097 28.0024 12.6308 27.5624 13.7995 26.7461C14.9681 25.9297 15.8211 24.7813 16.2302 23.4735C16.6393 22.1657 16.5822 20.7693 16.0677 19.4943C15.5531 18.2194 14.6089 17.1349 13.377 16.404ZM3 9.80002H9C9.79565 9.80002 10.5587 10.095 11.1213 10.6201C11.6839 11.1452 12 11.8574 12 12.6C12 13.3426 11.6839 14.0548 11.1213 14.5799C10.5587 15.105 9.79565 15.4 9 15.4H3V9.80002ZM9.75 25.2H3V18.2H9.75C10.7446 18.2 11.6984 18.5687 12.4017 19.2251C13.1049 19.8815 13.5 20.7717 13.5 21.7C13.5 22.6282 13.1049 23.5185 12.4017 24.1748C11.6984 24.8312 10.7446 25.2 9.75 25.2Z" fill="white"/>
</svg>
