<svg width="33" height="36" viewBox="0 0 33 36" fill="none" xmlns="http://www.w3.org/2000/svg">
<g clip-path="url(#clip0_8_8)">
<path d="M13.7497 31.9101C13.7497 31.6702 13.6976 31.4332 13.5972 31.216C13.4968 30.9987 13.3504 30.8065 13.1686 30.653C12.9867 30.4995 12.7738 30.3884 12.5449 30.3277C12.3159 30.2669 12.0766 30.2579 11.8439 30.3013C9.73166 30.6943 7.06476 30.7534 6.35568 28.7341C5.73738 27.1702 4.71321 25.805 3.39176 24.7834C3.29747 24.7314 3.20761 24.6715 3.1231 24.6044C3.00745 24.2951 2.80203 24.0286 2.53394 23.8401C2.26585 23.6516 1.94769 23.5499 1.62143 23.5484H1.61356C1.18694 23.5483 0.777631 23.7195 0.475227 24.0246C0.172824 24.3297 0.00195587 24.7438 2.26233e-05 25.1764C-0.0062863 26.5103 1.3086 27.365 1.84204 27.6542C2.47106 28.295 2.9766 29.0492 3.33267 29.878C3.92041 31.5523 5.62849 34.0924 10.5384 33.765C10.54 33.8225 10.5416 33.8768 10.5424 33.9263L10.5495 34.3641C10.5495 34.7979 10.7194 35.2141 11.022 35.5208C11.3246 35.8276 11.735 36 12.163 36C12.5909 36 13.0013 35.8276 13.3039 35.5208C13.6065 35.2141 13.7765 34.7979 13.7765 34.3641L13.7686 33.8433C13.7608 33.5332 13.7497 33.0843 13.7497 31.9101ZM30.9613 7.16513C31.0125 6.96064 31.063 6.73378 31.1071 6.47817C31.368 4.65508 31.1405 2.79438 30.4484 1.09108C30.3611 0.86902 30.2269 0.669019 30.0553 0.505093C29.8837 0.341166 29.6788 0.217282 29.4549 0.142126C28.8805 -0.0543815 26.7597 -0.440999 22.7038 2.18703C19.3324 1.38264 15.8228 1.38264 12.4514 2.18703C8.412 -0.402506 6.30211 -0.0511097 5.73327 0.134208C5.50393 0.20632 5.29341 0.329548 5.11714 0.49486C4.94087 0.660172 4.80332 0.863378 4.71456 1.08959C4.00832 2.82559 3.7833 4.72424 4.06379 6.58046C4.1032 6.78975 4.14573 6.98306 4.18986 7.16038C2.85316 8.96553 2.14117 11.1674 2.16427 13.4245C2.15992 13.9281 2.1828 14.4315 2.23282 14.9326C2.77174 22.462 7.61235 24.7226 10.9851 25.499C10.915 25.7035 10.8512 25.9224 10.7945 26.154C10.6934 26.5749 10.761 27.0193 10.9826 27.3898C11.2042 27.7602 11.5616 28.0264 11.9765 28.13C12.3914 28.2336 12.8299 28.1662 13.1958 27.9425C13.5618 27.7189 13.8253 27.3572 13.9286 26.9368C14.0312 26.3918 14.2944 25.891 14.6834 25.5006C14.9185 25.2919 15.0888 25.0183 15.1735 24.7132C15.2581 24.4082 15.2535 24.0847 15.1602 23.7823C15.0669 23.4798 14.8889 23.2113 14.6478 23.0096C14.4068 22.8078 14.1131 22.6814 13.8025 22.6457C8.22922 22.0003 5.80969 19.6982 5.44571 14.6323C5.40539 14.231 5.38724 13.8278 5.39135 13.4245C5.36546 11.8158 5.88965 10.2477 6.87488 8.98643C6.97388 8.85494 7.07932 8.72857 7.19081 8.6078C7.38836 8.38368 7.52118 8.10871 7.57469 7.81307C7.6282 7.51744 7.60034 7.21257 7.49415 6.93194C7.3853 6.6367 7.30148 6.33259 7.24362 6.02291C7.11217 5.14232 7.15529 4.24399 7.37045 3.3805C8.77282 3.78207 10.0927 4.43574 11.2671 5.31037C11.4614 5.44152 11.6811 5.52881 11.9115 5.5663C12.1419 5.60379 12.3776 5.5906 12.6026 5.52765C15.8637 4.63034 19.3018 4.63091 22.5627 5.52928C22.7888 5.59217 23.0258 5.6046 23.2571 5.56571C23.4885 5.52683 23.7088 5.43755 23.9028 5.30403C25.0718 4.42577 26.3861 3.76626 27.7838 3.35658C27.998 4.19933 28.046 5.07668 27.9248 5.93826C27.8664 6.27778 27.7751 6.61063 27.6522 6.93197C27.5461 7.2126 27.5182 7.51747 27.5717 7.81311C27.6252 8.10874 27.758 8.38371 27.9556 8.60783C28.0801 8.75001 28.2046 8.90337 28.3164 9.04716C29.2947 10.2871 29.81 11.8372 29.7716 13.4245C29.7746 13.8492 29.7543 14.2737 29.711 14.6962C29.3557 19.695 26.9267 21.9987 21.3274 22.6457C21.0167 22.6816 20.723 22.8082 20.482 23.0102C20.241 23.2122 20.063 23.4808 19.9698 23.7834C19.8766 24.086 19.8721 24.4095 19.9569 24.7147C20.0416 25.0198 20.212 25.2934 20.4473 25.5022C20.8485 25.903 21.1122 26.4238 21.1997 26.9879C21.3088 27.4259 21.3589 27.8768 21.3487 28.3283V32.1466C21.3329 33.2057 21.3329 33.9997 21.3329 34.364C21.3329 34.7979 21.5029 35.214 21.8055 35.5207C22.108 35.8275 22.5185 35.9999 22.9464 35.9999C23.3743 35.9999 23.7847 35.8275 24.0873 35.5207C24.3899 35.214 24.5599 34.7979 24.5599 34.364C24.5599 34.0093 24.5599 33.2313 24.5757 32.1721V28.3283C24.5887 27.605 24.5047 26.8832 24.3259 26.1828C24.2748 25.9528 24.2122 25.7257 24.1384 25.5022C26.593 25.0888 28.8233 23.8057 30.4322 21.8813C32.0411 19.9569 32.9244 17.5161 32.9246 14.9933C32.9778 14.4722 33.0025 13.9484 32.9987 13.4245C33.0345 11.1649 32.3166 8.95925 30.9613 7.16513Z" fill="white"/>
</g>
<defs>
<clipPath id="clip0_8_8">
<rect width="33" height="36" fill="white"/>
</clipPath>
</defs>
</svg>
