<svg width="33" height="36" viewBox="0 0 33 36" fill="none" xmlns="http://www.w3.org/2000/svg">
<path d="M24.5232 12.4744C23.1434 12.4738 21.7849 12.8142 20.5692 13.4654C20.4583 13.1739 20.2611 12.923 20.0038 12.746C19.7466 12.5689 19.4414 12.4742 19.1288 12.4744H12.9639C12.7615 12.4742 12.561 12.5139 12.374 12.5912C12.1869 12.6684 12.017 12.7816 11.8738 12.9244C11.7307 13.0672 11.6172 13.2368 11.5397 13.4234C11.4623 13.61 11.4225 13.81 11.4227 14.0119V32.4625C11.4225 32.6644 11.4623 32.8644 11.5397 33.051C11.6171 33.2376 11.7307 33.4071 11.8738 33.5499C12.017 33.6927 12.1869 33.806 12.3739 33.8832C12.561 33.9604 12.7615 34.0001 12.9639 34H19.1288C19.3313 34.0001 19.5318 33.9604 19.7188 33.8832C19.9058 33.806 20.0758 33.6927 20.2189 33.5499C20.3621 33.4071 20.4756 33.2376 20.553 33.051C20.6304 32.8644 20.6702 32.6644 20.6701 32.4625V24.006C20.6701 23.5982 20.8325 23.2071 21.1215 22.9187C21.4105 22.6304 21.8026 22.4684 22.2113 22.4684C22.6201 22.4684 23.0121 22.6304 23.3011 22.9187C23.5902 23.2071 23.7526 23.5982 23.7526 24.006V32.4625C23.7524 32.6644 23.7922 32.8644 23.8696 33.051C23.9471 33.2376 24.0606 33.4071 24.2037 33.5499C24.3469 33.6927 24.5168 33.806 24.7039 33.8832C24.8909 33.9604 25.0914 34.0001 25.2938 34H31.4588C31.6612 34.0001 31.8617 33.9604 32.0487 33.8832C32.2358 33.806 32.4057 33.6927 32.5488 33.5499C32.692 33.4071 32.8055 33.2376 32.8829 33.051C32.9603 32.8644 33.0001 32.6644 33 32.4625V20.9309C32.9972 18.6889 32.1032 16.5396 30.5141 14.9543C28.925 13.369 26.7705 12.4771 24.5232 12.4744ZM29.9175 30.9249H26.835V24.006C26.835 22.7826 26.3479 21.6094 25.4808 20.7443C24.6137 19.8793 23.4376 19.3933 22.2113 19.3933C20.985 19.3933 19.809 19.8793 18.9419 20.7443C18.0748 21.6094 17.5876 22.7826 17.5876 24.006V30.9249H14.5051V15.5495H17.5876V16.6305C17.5878 16.9491 17.6871 17.2598 17.8719 17.5196C18.0567 17.7795 18.3177 17.9757 18.6191 18.0812C18.9204 18.1866 19.2471 18.1962 19.5541 18.1085C19.8611 18.0208 20.1333 17.8401 20.3329 17.5915C21.0246 16.7152 21.9733 16.0762 23.0467 15.7637C24.12 15.4513 25.2643 15.4811 26.3198 15.8488C27.3754 16.2166 28.2895 16.904 28.9345 17.8151C29.5794 18.7262 29.9231 19.8155 29.9175 20.9309V30.9249ZM8.34018 12.4744H2.17522C1.97279 12.4742 1.77232 12.5139 1.58528 12.5912C1.39824 12.6684 1.22829 12.7816 1.08515 12.9244C0.942006 13.0672 0.828483 13.2368 0.75107 13.4234C0.673656 13.61 0.63387 13.81 0.633985 14.0119V32.4625C0.633868 32.6644 0.673653 32.8644 0.751066 33.051C0.828479 33.2376 0.942001 33.4071 1.08514 33.5499C1.22828 33.6927 1.39823 33.806 1.58528 33.8832C1.77232 33.9604 1.97279 34.0001 2.17522 34H8.34018C8.54261 34.0001 8.74308 33.9604 8.93012 33.8832C9.11717 33.806 9.28712 33.6927 9.43026 33.5499C9.5734 33.4071 9.68692 33.2376 9.76434 33.051C9.84175 32.8644 9.88154 32.6644 9.88142 32.4625V14.0119C9.88153 13.81 9.84175 13.61 9.76433 13.4234C9.68692 13.2368 9.5734 13.0672 9.43026 12.9244C9.28712 12.7816 9.11717 12.6684 8.93012 12.5912C8.74308 12.5139 8.54261 12.4742 8.34018 12.4744ZM6.79894 30.9249H3.71646V15.5495H6.79894V30.9249ZM5.28028 1.00888C4.60577 0.968603 3.9301 1.06561 3.29436 1.29401C2.65861 1.52241 2.07608 1.87742 1.58218 2.33746C1.08828 2.7975 0.693347 3.35296 0.421384 3.97004C0.149422 4.58713 0.00611986 5.25295 0.000191768 5.92702C-0.00573633 6.60108 0.125834 7.26931 0.386901 7.89106C0.647968 8.51281 1.03308 9.07509 1.51881 9.54371C2.00454 10.0123 2.58074 10.3775 3.21237 10.617C3.844 10.8565 4.51786 10.9653 5.19297 10.9368H5.23662C5.91291 10.9769 6.59029 10.879 7.22737 10.6491C7.86444 10.4192 8.44784 10.0621 8.94191 9.59962C9.43598 9.13718 9.83034 8.5791 10.1009 7.95948C10.3715 7.33985 10.5125 6.6717 10.5155 5.99585C10.5185 5.32 10.3833 4.65064 10.1182 4.02867C9.85308 3.4067 9.46364 2.84519 8.97366 2.37844C8.48367 1.9117 7.90344 1.54952 7.26841 1.31404C6.63338 1.07856 5.9569 0.974728 5.28028 1.00888ZM5.23663 7.86172H5.19297C4.92644 7.89401 4.65607 7.86907 4.39999 7.78858C4.14391 7.70809 3.90804 7.5739 3.70821 7.39502C3.50837 7.21614 3.34918 6.9967 3.24132 6.75142C3.13346 6.50614 3.07941 6.24069 3.08281 5.97286C3.08281 4.8257 3.94524 4.08396 5.28028 4.08396C5.54953 4.04815 5.82335 4.07032 6.08329 4.14897C6.34323 4.22762 6.58326 4.36093 6.7872 4.53992C6.99115 4.71891 7.15428 4.93942 7.26561 5.1866C7.37694 5.43377 7.43388 5.70188 7.43259 5.97286C7.43259 7.12001 6.57016 7.86172 5.23663 7.86172Z" fill="white"/>
</svg>
